<svg height="512" viewBox="0 0 64 64" width="512" xmlns="http://www.w3.org/2000/svg"><g id="Filled_outline" data-name="Filled outline"><path d="m30 25h-5l-7-9v-13h12z" fill="#266035"/><path d="m34 25h5l7-9v-13h-12z" fill="#266035"/><path d="m22 3h-4v13l4 5.143z" fill="#dd3e46"/><path d="m42 3h4v13l-4 5.143z" fill="#dd3e46"/><path d="m43 44v-4l8-2v8z" fill="#ffd782"/><path d="m21 40v4l-8 2v-8z" fill="#ffd782"/><path d="m34 31h-4l-2-6h8z" fill="#ffd782"/><path d="m30 53h4l2 8h-8z" fill="#ffd782"/><circle cx="32" cy="42" fill="#f9bb4b" r="13"/><path d="m30 3h4v22h-4z" fill="#dd3e46"/><g fill="#55b56a"><path d="m25 6h2v2h-2z"/><path d="m25 10h2v2h-2z"/><path d="m25 14h2v2h-2z"/><path d="m25 18h2v2h-2z"/><path d="m37 6h2v2h-2z"/><path d="m37 10h2v2h-2z"/><path d="m37 14h2v2h-2z"/><path d="m37 18h2v2h-2z"/></g><path d="m32 35 2 4 4 1-3 3 1 4-4-2.05-4 2.05 1-4-3-3 4-1z" fill="#fcf05a"/><path d="m24.216 48.621 1.568-1.242a8.79 8.79 0 0 1 -1.784-5.379 8 8 0 0 1 16 0 8.79 8.79 0 0 1 -1.784 5.379l1.568 1.242a10.827 10.827 0 0 0 2.216-6.621 10 10 0 0 0 -20 0 10.827 10.827 0 0 0 2.216 6.621z"/><path d="m38.964 39.733a1 1 0 0 0 -.721-.7l-3.554-.888-1.789-3.592a1.042 1.042 0 0 0 -1.79 0l-1.794 3.589-3.554.888a1 1 0 0 0 -.464 1.677l2.6 2.6-.863 3.451a1 1 0 0 0 1.426 1.132l3.539-1.816 3.544 1.816a1 1 0 0 0 1.426-1.132l-.863-3.451 2.6-2.6a1 1 0 0 0 .257-.974zm-4.671 2.56a1 1 0 0 0 -.263.949l.466 1.863-2.04-1.044a.992.992 0 0 0 -.912 0l-2.044 1.044.466-1.863a1 1 0 0 0 -.263-.949l-1.751-1.751 2.287-.572a1 1 0 0 0 .652-.523l1.109-2.211 1.1 2.211a1 1 0 0 0 .652.523l2.287.572z"/><path d="m25 6h2v2h-2z"/><path d="m25 10h2v2h-2z"/><path d="m25 14h2v2h-2z"/><path d="m25 18h2v2h-2z"/><path d="m37 6h2v2h-2z"/><path d="m37 10h2v2h-2z"/><path d="m37 14h2v2h-2z"/><path d="m37 18h2v2h-2z"/><path d="m18.5 38.346-5.257-1.316a1 1 0 0 0 -1.243.97v8a1 1 0 0 0 1.243.97l5.257-1.316a14.034 14.034 0 0 0 9.846 9.846l-1.316 5.257a1 1 0 0 0 .97 1.243h8a1 1 0 0 0 .97-1.243l-1.316-5.257a14.034 14.034 0 0 0 9.846-9.846l5.257 1.316a1 1 0 0 0 1.243-.97v-8a1 1 0 0 0 -1.243-.97l-5.257 1.316a14.035 14.035 0 0 0 -9.634-9.791l.854-2.555h2.28a1 1 0 0 0 .79-.386l7-9a1 1 0 0 0 .21-.614v-13a1 1 0 0 0 -1-1h-28a1 1 0 0 0 -1 1v13a1 1 0 0 0 .21.614l7 9a1 1 0 0 0 .79.386h2.28l.854 2.555a14.035 14.035 0 0 0 -9.634 9.791zm-.388 5.344-4.112 1.029v-5.438l4.112 1.029a12.806 12.806 0 0 0 0 3.38zm27.776-3.38 4.112-1.029v5.438l-4.112-1.029a12.806 12.806 0 0 0 0-3.38zm-2.888-36.31h2v11.657l-2 2.571zm-22 14.228-2-2.571v-11.657h2zm8.281 41.772 1.03-4.112a12.791 12.791 0 0 0 3.378 0l1.03 4.112zm5.719-56h6v16.8l-2.489 3.2h-3.511zm-4 0h2v20h-2zm3.611 22-.711 2.144a12.554 12.554 0 0 0 -3.792 0l-.719-2.144zm-9.122-2-2.489-3.2v-16.8h6v20zm6.511 6a12 12 0 1 1 -12 12 12.013 12.013 0 0 1 12-12z"/><path d="m27 50h2v2h-2z"/><path d="m31 49h2v2h-2z"/><path d="m35 50h2v2h-2z"/></g></svg>