<?xml version="1.0" encoding="iso-8859-1"?>
<!-- Generator: Adobe Illustrator 19.0.0, SVG Export Plug-In . SVG Version: 6.00 Build 0)  -->
<svg xmlns="http://www.w3.org/2000/svg" xmlns:xlink="http://www.w3.org/1999/xlink" version="1.1" id="Layer_1" x="0px" y="0px" viewBox="0 0 512 512" style="enable-background:new 0 0 512 512;" xml:space="preserve" width="512" height="512">
<g>
	<circle style="fill:#25D9F8;" cx="256" cy="256" r="256"/>
	<g>
		<path style="fill:#00C0F1;" d="M509.152,217.741l-87.737-87.737l-41.919,2.492l-16.88,16.88l146.318,146.318    C510.947,282.757,512,269.502,512,256C512,242.997,511.023,230.223,509.152,217.741z"/>
		<path style="fill:#00C0F1;" d="M406.412,239.62l-73.705,73.705L149.034,129.653l-47.107,15.107l-11.365,43.365l48.867,48.867    l-34.643,34.643l228.484,228.484c79.219-25.052,141.769-87.592,166.835-166.806L406.412,239.62z"/>
		<path style="fill:#00C0F1;" d="M109.965,323.847l-16.059,16.059l-3.314,42.093l127.154,127.154    C230.226,511.023,242.999,512,256,512c13.309,0,26.381-1.018,39.142-2.976L109.965,323.847z"/>
	</g>
	<g>
		<g>
			<path style="fill:#E0F4FF;" d="M415.987,249.603c-2.907-3.295-70.818-80.834-159.987-80.834S98.92,246.308,96.013,249.603     L90.585,256l5.428,6.396c2.907,3.296,70.818,80.835,159.987,80.835s157.08-77.538,159.987-80.835l5.428-6.396L415.987,249.603z"/>
		</g>
		<path style="fill:#BBDCFF;" d="M421.415,256l-5.428,6.396c-2.907,3.296-70.818,80.835-159.987,80.835V168.769    c89.169,0,157.08,77.538,159.987,80.834L421.415,256z"/>
		<path style="fill:#FF641A;" d="M256,343.231c48.102,0,87.231-39.129,87.231-87.231l-16.154-38.769h-58.558L256,256l-19.385,16.558    v57.346L256,343.231z"/>
		<polygon style="fill:#537983;" points="109.969,188.154 90.585,188.154 90.585,130 149.385,130 149.385,149.385 109.969,149.385       "/>
		<polygon style="fill:#537983;" points="149.385,382 90.585,382 90.585,323.846 109.969,323.846 109.969,362.615 149.385,362.615       "/>
		<polygon style="fill:#3E5959;" points="421.415,188.154 402.031,188.154 402.031,149.385 362.615,149.385 362.615,130     421.415,130   "/>
		<polygon style="fill:#3E5959;" points="421.415,382 362.615,382 362.615,362.615 402.031,362.615 402.031,323.846     421.415,323.846   "/>
		<path style="fill:#7FE881;" d="M275.385,285.077H256V256l-19.385-19.385h-51.693L168.769,256    c0,48.102,39.129,87.231,87.231,87.231v-38.769h19.385V285.077z"/>
		<path style="fill:#537983;" d="M256,168.769c-48.102,0-87.231,39.129-87.231,87.231h38.769v19.385h19.385V256H256l19.385-13.993    V180.48L256,168.769z"/>
		<path style="fill:#00C0F1;" d="M343.231,256c0-48.102-39.129-87.231-87.231-87.231v38.769h-19.385v19.385H256V256h29.077v-19.385    h19.385V256H343.231z"/>
	</g>
</g>















</svg>
